<svg width="100" height="100" viewBox="0 0 100 100" fill="none" xmlns="http://www.w3.org/2000/svg">
<rect width="100" height="100" rx="16" fill="#071A4B"/>
<path d="M49.475 76.9C45.325 76.9 41.3 76.35 37.4 75.25C33.55 74.1 30.45 72.625 28.1 70.825L32.225 61.675C34.475 63.325 37.15 64.65 40.25 65.65C43.35 66.65 46.45 67.15 49.55 67.15C53 67.15 55.55 66.65 57.2 65.65C58.85 64.6 59.675 63.225 59.675 61.525C59.675 60.275 59.175 59.25 58.175 58.45C57.225 57.6 55.975 56.925 54.425 56.425C52.925 55.925 50.875 55.375 48.275 54.775C44.275 53.825 41 52.875 38.45 51.925C35.9 50.975 33.7 49.45 31.85 47.35C30.05 45.25 29.15 42.45 29.15 38.95C29.15 35.9 29.975 33.15 31.625 30.7C33.275 28.2 35.75 26.225 39.05 24.775C42.4 23.325 46.475 22.6 51.275 22.6C54.625 22.6 57.9 23 61.1 23.8C64.3 24.6 67.1 25.75 69.5 27.25L65.75 36.475C60.9 33.725 56.05 32.35 51.2 32.35C47.8 32.35 45.275 32.9 43.625 34C42.025 35.1 41.225 36.55 41.225 38.35C41.225 40.15 42.15 41.5 44 42.4C45.9 43.25 48.775 44.1 52.625 44.95C56.625 45.9 59.9 46.85 62.45 47.8C65 48.75 67.175 50.25 68.975 52.3C70.825 54.35 71.75 57.125 71.75 60.625C71.75 63.625 70.9 66.375 69.2 68.875C67.55 71.325 65.05 73.275 61.7 74.725C58.35 76.175 54.275 76.9 49.475 76.9Z" fill="white"/>
</svg>
